<svg width="13" height="18" viewBox="0 0 13 18" fill="none" xmlns="http://www.w3.org/2000/svg">
<path d="M9.22767 0H0V17.7188H12.7853V3.59241L9.22767 0ZM0.717139 0.767578H8.82464V1.14645V4.0301H11.6736H12.0608V16.9957L0.717139 16.9514V0.767578ZM10.2247 13.527H2.56064V12.6833H10.2247V13.527ZM10.2247 15.0739H2.56064V14.2301H10.2247V15.0739Z" fill="#333333"/>
<path d="M2.89844 11.4579V7.42429H1.39844L6.39844 2.88647L11.3984 7.42429H10.4884C10.0577 6.96962 9.50537 6.65083 8.89844 6.50664L6.39844 4.24278L3.89844 6.51168V10.4495H4.98844C5.07344 10.8125 5.21844 11.1503 5.41344 11.4579H2.89844Z" fill="#333333"/>
<path d="M7.79699 11.3989C7.20632 11.3989 6.70648 11.1943 6.29745 10.785C5.88843 10.3758 5.68381 9.87596 5.68359 9.28551C5.68338 8.69506 5.888 8.19522 6.29745 7.78598C6.70691 7.37674 7.20675 7.17212 7.79699 7.17212C8.38722 7.17212 8.88717 7.37674 9.29684 7.78598C9.70652 8.19522 9.91103 8.69506 9.91038 9.28551C9.91038 9.52394 9.87244 9.74883 9.79658 9.96017C9.72071 10.1715 9.61775 10.3585 9.4877 10.521L11.3085 12.3418C11.3681 12.4014 11.3979 12.4773 11.3979 12.5694C11.3979 12.6615 11.3681 12.7374 11.3085 12.797C11.2489 12.8566 11.173 12.8864 11.0809 12.8864C10.9887 12.8864 10.9129 12.8566 10.8533 12.797L9.03251 10.9762C8.86994 11.1063 8.68298 11.2092 8.47165 11.2851C8.26031 11.361 8.03542 11.3989 7.79699 11.3989ZM7.79699 10.7486C8.20341 10.7486 8.54892 10.6064 8.83352 10.322C9.11813 10.0377 9.26032 9.69215 9.2601 9.28551C9.25989 8.87887 9.11769 8.53347 8.83352 8.2493C8.54935 7.96513 8.20384 7.82283 7.79699 7.82239C7.39013 7.82196 7.04473 7.96426 6.76077 8.2493C6.47682 8.53434 6.33452 8.87974 6.33387 9.28551C6.33322 9.69128 6.47552 10.0368 6.76077 10.322C7.04603 10.6073 7.39143 10.7495 7.79699 10.7486Z" fill="#333333"/>
</svg>
