<svg width="18" height="18" viewBox="0 0 18 18" fill="none" xmlns="http://www.w3.org/2000/svg">
<g clip-path="url(#clip0_570_2290)">
<mask id="path-1-inside-1_570_2290" fill="white">
<path d="M17.7353 11.3977C17.7353 10.5233 17.1481 9.74475 16.3074 9.50484L13.7978 8.78794V8.05387C14.1052 7.77291 14.3429 7.41797 14.4827 7.01662C14.8264 6.98203 15.1501 6.82875 15.3844 6.57084C15.6195 6.31238 15.7413 5.97319 15.7421 5.625H15.75V3.9375C15.75 1.9215 14.1098 0.28125 12.0938 0.28125C10.0777 0.28125 8.4375 1.9215 8.4375 3.9375V5.625H8.44537C8.44622 5.97347 8.56828 6.31238 8.80312 6.57084C9.03741 6.82847 9.36113 6.98175 9.70481 7.01662C9.84713 7.42528 10.0907 7.78556 10.4062 8.06878V8.78794L7.89666 9.50484C7.056 9.74475 6.46875 10.5233 6.46875 11.3977V12.8872C6.29072 12.8416 6.12253 12.7561 5.98866 12.6222L5.37778 12.0113C5.17753 11.8108 5.0625 11.5335 5.0625 11.25C5.0625 10.9665 5.17753 10.6892 5.37778 10.4887L5.70769 10.1585C6.01706 9.84937 6.1875 9.43819 6.1875 9.00084V8.94713C6.1875 8.55056 6.0435 8.16778 5.7825 7.86909L4.55456 6.46566C4.24322 6.11016 3.79434 5.90625 3.32213 5.90625C2.92528 5.90625 2.5425 6.05025 2.24381 6.31125L1.18266 7.23994C0.60975 7.74113 0.28125 8.46506 0.28125 9.22613C0.28125 9.67838 0.398531 10.1258 0.620156 10.5202C2.1015 13.1535 4.24716 15.3785 6.82566 16.9543L7.45847 17.341C7.86319 17.588 8.32753 17.7188 8.802 17.7188C9.54534 17.7188 10.2521 17.3978 10.7412 16.8387L11.6885 15.7559C11.9497 15.4575 12.0938 15.0747 12.0938 14.6779C12.0938 14.5645 12.0814 14.4526 12.0586 14.3438H17.7353V11.3977ZM14.6756 9.62381L13.7003 11.3791L12.5103 10.3874L13.5855 9.31219L14.6756 9.62381ZM14.9681 6.19256C14.8711 6.29916 14.7473 6.37425 14.6132 6.41981C14.6202 6.34303 14.625 6.26597 14.625 6.1875V4.84172C14.9276 4.95647 15.1532 5.22309 15.1836 5.54119C15.2066 5.78306 15.1301 6.01453 14.9681 6.19256ZM12.0938 0.84375C13.7995 0.84375 15.1875 2.23172 15.1875 3.9375V4.52391C14.9386 4.33547 14.6295 4.21875 14.2954 4.21875H14.1308C13.4364 4.21875 12.7837 3.94847 12.2926 3.45741L12.0938 3.25856L11.8949 3.45741C11.4038 3.94847 10.7511 4.21875 10.0567 4.21875H9.84375C9.52791 4.22887 9.23681 4.34447 9 4.52391V3.9375C9 2.23172 10.388 0.84375 12.0938 0.84375ZM9.21937 6.19256C9.05737 6.01453 8.98087 5.78334 9.00394 5.54147C9.03431 5.22337 9.25988 4.95675 9.5625 4.842V6.1875C9.5625 6.26597 9.56728 6.34303 9.57431 6.41981C9.44016 6.37397 9.31641 6.29916 9.21937 6.19256ZM10.125 6.1875V4.77816C10.8534 4.76269 11.5417 4.5045 12.0938 4.03791C12.6458 4.5045 13.3341 4.76269 14.0625 4.77816V6.1875C14.0625 7.27284 13.1794 8.15625 12.0938 8.15625C11.0081 8.15625 10.125 7.27284 10.125 6.1875ZM12.0938 8.71875C12.5047 8.71875 12.8917 8.61834 13.2353 8.44369V8.86697L12.0938 10.0086L10.9688 8.88356V8.45156C11.3082 8.62116 11.6893 8.71875 12.0938 8.71875ZM10.6057 9.31584L11.6772 10.3874L10.4872 11.3791L9.51441 9.62775L10.6057 9.31584ZM4.131 6.83578L5.35894 8.23922C5.5305 8.43525 5.625 8.68669 5.625 8.94713V9.00084C5.625 9.13134 5.59913 9.25706 5.55469 9.37603L2.79056 6.61162C2.95172 6.51937 3.13425 6.46875 3.32213 6.46875C3.63206 6.46875 3.92681 6.60263 4.131 6.83578ZM10.3182 16.4686C9.93572 16.9054 9.38306 17.1562 8.802 17.1562C8.43103 17.1562 8.06794 17.0542 7.75181 16.8607L7.119 16.4739C4.62262 14.9482 2.54475 12.7941 1.11037 10.2442C0.936 9.93403 0.84375 9.58191 0.84375 9.22613C0.84375 8.62734 1.10222 8.05781 1.55278 7.6635L2.34984 6.96628L5.22731 9.84375L4.98038 10.091C4.67494 10.3961 4.5 10.8186 4.5 11.25C4.5 11.6814 4.67494 12.1039 4.98009 12.409L5.59097 13.0199C5.90034 13.3296 6.31209 13.5 6.75 13.5C7.18791 13.5 7.59966 13.3296 7.90903 13.0199L8.15625 12.7727L11.034 15.6504L10.3182 16.4686ZM11.3887 15.2097L8.62425 12.4453C8.74294 12.4012 8.86894 12.375 8.99944 12.375H9.05287C9.31331 12.375 9.56475 12.4695 9.76078 12.6411L11.1642 13.869C11.3974 14.0729 11.5312 14.3679 11.5312 14.6779C11.5312 14.866 11.4803 15.0486 11.3887 15.2097ZM17.1728 13.7812H15.4772V11.8125H14.9147V13.7812H11.8238C11.743 13.6583 11.6474 13.5444 11.5346 13.4457L10.1315 12.2178C9.8325 11.9565 9.44972 11.8125 9.05287 11.8125H8.99944C8.56209 11.8125 8.15091 11.9827 7.84153 12.292L7.51163 12.6222C7.37747 12.7561 7.20956 12.8416 7.03153 12.8872V11.3977C7.03153 10.773 7.45088 10.2172 8.05134 10.0457L8.95922 9.78638L10.3255 12.2459L11.8125 11.0067V13.2188H12.375V11.0067L13.8622 12.2459L15.2308 9.78244L16.153 10.046C16.7535 10.2173 17.1728 10.7733 17.1728 11.3979V13.7812Z"/>
</mask>
<path d="M17.7353 11.3977C17.7353 10.5233 17.1481 9.74475 16.3074 9.50484L13.7978 8.78794V8.05387C14.1052 7.77291 14.3429 7.41797 14.4827 7.01662C14.8264 6.98203 15.1501 6.82875 15.3844 6.57084C15.6195 6.31238 15.7413 5.97319 15.7421 5.625H15.75V3.9375C15.75 1.9215 14.1098 0.28125 12.0938 0.28125C10.0777 0.28125 8.4375 1.9215 8.4375 3.9375V5.625H8.44537C8.44622 5.97347 8.56828 6.31238 8.80312 6.57084C9.03741 6.82847 9.36113 6.98175 9.70481 7.01662C9.84713 7.42528 10.0907 7.78556 10.4062 8.06878V8.78794L7.89666 9.50484C7.056 9.74475 6.46875 10.5233 6.46875 11.3977V12.8872C6.29072 12.8416 6.12253 12.7561 5.98866 12.6222L5.37778 12.0113C5.17753 11.8108 5.0625 11.5335 5.0625 11.25C5.0625 10.9665 5.17753 10.6892 5.37778 10.4887L5.70769 10.1585C6.01706 9.84937 6.1875 9.43819 6.1875 9.00084V8.94713C6.1875 8.55056 6.0435 8.16778 5.7825 7.86909L4.55456 6.46566C4.24322 6.11016 3.79434 5.90625 3.32213 5.90625C2.92528 5.90625 2.5425 6.05025 2.24381 6.31125L1.18266 7.23994C0.60975 7.74113 0.28125 8.46506 0.28125 9.22613C0.28125 9.67838 0.398531 10.1258 0.620156 10.5202C2.1015 13.1535 4.24716 15.3785 6.82566 16.9543L7.45847 17.341C7.86319 17.588 8.32753 17.7188 8.802 17.7188C9.54534 17.7188 10.2521 17.3978 10.7412 16.8387L11.6885 15.7559C11.9497 15.4575 12.0938 15.0747 12.0938 14.6779C12.0938 14.5645 12.0814 14.4526 12.0586 14.3438H17.7353V11.3977ZM14.6756 9.62381L13.7003 11.3791L12.5103 10.3874L13.5855 9.31219L14.6756 9.62381ZM14.9681 6.19256C14.8711 6.29916 14.7473 6.37425 14.6132 6.41981C14.6202 6.34303 14.625 6.26597 14.625 6.1875V4.84172C14.9276 4.95647 15.1532 5.22309 15.1836 5.54119C15.2066 5.78306 15.1301 6.01453 14.9681 6.19256ZM12.0938 0.84375C13.7995 0.84375 15.1875 2.23172 15.1875 3.9375V4.52391C14.9386 4.33547 14.6295 4.21875 14.2954 4.21875H14.1308C13.4364 4.21875 12.7837 3.94847 12.2926 3.45741L12.0938 3.25856L11.8949 3.45741C11.4038 3.94847 10.7511 4.21875 10.0567 4.21875H9.84375C9.52791 4.22887 9.23681 4.34447 9 4.52391V3.9375C9 2.23172 10.388 0.84375 12.0938 0.84375ZM9.21937 6.19256C9.05737 6.01453 8.98087 5.78334 9.00394 5.54147C9.03431 5.22337 9.25988 4.95675 9.5625 4.842V6.1875C9.5625 6.26597 9.56728 6.34303 9.57431 6.41981C9.44016 6.37397 9.31641 6.29916 9.21937 6.19256ZM10.125 6.1875V4.77816C10.8534 4.76269 11.5417 4.5045 12.0938 4.03791C12.6458 4.5045 13.3341 4.76269 14.0625 4.77816V6.1875C14.0625 7.27284 13.1794 8.15625 12.0938 8.15625C11.0081 8.15625 10.125 7.27284 10.125 6.1875ZM12.0938 8.71875C12.5047 8.71875 12.8917 8.61834 13.2353 8.44369V8.86697L12.0938 10.0086L10.9688 8.88356V8.45156C11.3082 8.62116 11.6893 8.71875 12.0938 8.71875ZM10.6057 9.31584L11.6772 10.3874L10.4872 11.3791L9.51441 9.62775L10.6057 9.31584ZM4.131 6.83578L5.35894 8.23922C5.5305 8.43525 5.625 8.68669 5.625 8.94713V9.00084C5.625 9.13134 5.59913 9.25706 5.55469 9.37603L2.79056 6.61162C2.95172 6.51937 3.13425 6.46875 3.32213 6.46875C3.63206 6.46875 3.92681 6.60263 4.131 6.83578ZM10.3182 16.4686C9.93572 16.9054 9.38306 17.1562 8.802 17.1562C8.43103 17.1562 8.06794 17.0542 7.75181 16.8607L7.119 16.4739C4.62262 14.9482 2.54475 12.7941 1.11037 10.2442C0.936 9.93403 0.84375 9.58191 0.84375 9.22613C0.84375 8.62734 1.10222 8.05781 1.55278 7.6635L2.34984 6.96628L5.22731 9.84375L4.98038 10.091C4.67494 10.3961 4.5 10.8186 4.5 11.25C4.5 11.6814 4.67494 12.1039 4.98009 12.409L5.59097 13.0199C5.90034 13.3296 6.31209 13.5 6.75 13.5C7.18791 13.5 7.59966 13.3296 7.90903 13.0199L8.15625 12.7727L11.034 15.6504L10.3182 16.4686ZM11.3887 15.2097L8.62425 12.4453C8.74294 12.4012 8.86894 12.375 8.99944 12.375H9.05287C9.31331 12.375 9.56475 12.4695 9.76078 12.6411L11.1642 13.869C11.3974 14.0729 11.5312 14.3679 11.5312 14.6779C11.5312 14.866 11.4803 15.0486 11.3887 15.2097ZM17.1728 13.7812H15.4772V11.8125H14.9147V13.7812H11.8238C11.743 13.6583 11.6474 13.5444 11.5346 13.4457L10.1315 12.2178C9.8325 11.9565 9.44972 11.8125 9.05287 11.8125H8.99944C8.56209 11.8125 8.15091 11.9827 7.84153 12.292L7.51163 12.6222C7.37747 12.7561 7.20956 12.8416 7.03153 12.8872V11.3977C7.03153 10.773 7.45088 10.2172 8.05134 10.0457L8.95922 9.78638L10.3255 12.2459L11.8125 11.0067V13.2188H12.375V11.0067L13.8622 12.2459L15.2308 9.78244L16.153 10.046C16.7535 10.2173 17.1728 10.7733 17.1728 11.3979V13.7812Z" fill="#333333" stroke="#333333" stroke-width="2" mask="url(#path-1-inside-1_570_2290)"/>
</g>
<defs>
<clipPath id="clip0_570_2290">
<rect width="18" height="18" fill="white"/>
</clipPath>
</defs>
</svg>
