<svg width="18" height="18" viewBox="0 0 18 18" fill="none" xmlns="http://www.w3.org/2000/svg">
<path d="M2.8125 7.45312V15.75C2.8125 15.8992 2.87176 16.0423 2.97725 16.1477C3.08274 16.2532 3.22582 16.3125 3.375 16.3125H6.75H11.25H14.625C14.7742 16.3125 14.9173 16.2532 15.0227 16.1477C15.1282 16.0423 15.1875 15.8992 15.1875 15.75V11.6016V7.45312" stroke="#333333" stroke-width="0.7" stroke-linecap="round" stroke-linejoin="round"/>
<path d="M16.875 9.00012L9.38285 1.82824C9.20707 1.64262 8.79609 1.64051 8.61715 1.82824L1.125 9.00012M14.0625 6.29309V2.25012H12.375V4.6759" stroke="#333333" stroke-linecap="round" stroke-linejoin="round"/>
<g clip-path="url(#clip0_570_2301)">
<path d="M10 15.5H9.25C9.11739 15.5 8.99021 15.4473 8.89645 15.3536C8.80268 15.2598 8.75 15.1326 8.75 15V13.75H9.25V15H10V13.75H10.5V12.75C10.5 12.6837 10.4737 12.6201 10.4268 12.5732C10.3799 12.5263 10.3163 12.5 10.25 12.5H8.07L7.57 11H6C5.9337 11 5.87011 11.0263 5.82322 11.0732C5.77634 11.1201 5.75 11.1837 5.75 11.25V12.75H6.25V15H7.25V13.25H7.75V15C7.75 15.1326 7.69732 15.2598 7.60355 15.3536C7.50979 15.4473 7.38261 15.5 7.25 15.5H6.25C6.11739 15.5 5.99021 15.4473 5.89645 15.3536C5.80268 15.2598 5.75 15.1326 5.75 15V13.25C5.61739 13.25 5.49021 13.1973 5.39645 13.1036C5.30268 13.0098 5.25 12.8826 5.25 12.75V11.25C5.2502 11.0511 5.32928 10.8605 5.46989 10.7199C5.6105 10.5793 5.80115 10.5002 6 10.5H7.57C7.67491 10.5 7.77716 10.533 7.86227 10.5944C7.94738 10.6557 8.01105 10.7422 8.04425 10.8418L8.43 12H10.25C10.4489 12.0002 10.6395 12.0793 10.7801 12.2199C10.9207 12.3605 10.9998 12.5511 11 12.75V13.75C11 13.8826 10.9473 14.0098 10.8536 14.1036C10.7598 14.1973 10.6326 14.25 10.5 14.25V15C10.5 15.1326 10.4473 15.2598 10.3536 15.3536C10.2598 15.4473 10.1326 15.5 10 15.5ZM12 15.5H11.5V12.75H12.25V11.25C12.25 11.1837 12.2237 11.1201 12.1768 11.0732C12.1299 11.0263 12.0663 11 12 11H11V10.5H12C12.1989 10.5002 12.3895 10.5793 12.5301 10.7199C12.6707 10.8605 12.7498 11.0511 12.75 11.25V12.75C12.75 12.8826 12.6973 13.0098 12.6036 13.1036C12.5098 13.1973 12.3826 13.25 12.25 13.25H12V15.5ZM6.75 10.25C6.55222 10.25 6.35888 10.1914 6.19443 10.0815C6.02998 9.97159 5.90181 9.81541 5.82612 9.63268C5.75043 9.44996 5.73063 9.24889 5.76921 9.05491C5.8078 8.86093 5.90304 8.68275 6.04289 8.54289C6.18275 8.40304 6.36093 8.3078 6.55491 8.26922C6.74889 8.23063 6.94996 8.25043 7.13268 8.32612C7.31541 8.40181 7.47159 8.52998 7.58147 8.69443C7.69135 8.85888 7.75 9.05222 7.75 9.25C7.74967 9.51512 7.64421 9.76928 7.45674 9.95674C7.26928 10.1442 7.01511 10.2497 6.75 10.25ZM6.75 8.75C6.65111 8.75 6.55444 8.77933 6.47221 8.83427C6.38999 8.88921 6.3259 8.9673 6.28806 9.05866C6.25022 9.15002 6.24031 9.25056 6.25961 9.34755C6.2789 9.44454 6.32652 9.53363 6.39645 9.60355C6.46637 9.67348 6.55546 9.7211 6.65245 9.74039C6.74945 9.75969 6.84998 9.74978 6.94134 9.71194C7.0327 9.6741 7.11079 9.61001 7.16573 9.52779C7.22068 9.44556 7.25 9.34889 7.25 9.25C7.25 9.11739 7.19732 8.99022 7.10355 8.89645C7.00979 8.80268 6.88261 8.75 6.75 8.75ZM11.25 10.25C11.0522 10.25 10.8589 10.1914 10.6944 10.0815C10.53 9.97159 10.4018 9.81541 10.3261 9.63268C10.2504 9.44996 10.2306 9.24889 10.2692 9.05491C10.3078 8.86093 10.403 8.68275 10.5429 8.54289C10.6827 8.40304 10.8609 8.3078 11.0549 8.26922C11.2489 8.23063 11.45 8.25043 11.6327 8.32612C11.8154 8.40181 11.9716 8.52998 12.0815 8.69443C12.1914 8.85888 12.25 9.05222 12.25 9.25C12.2497 9.51512 12.1442 9.76928 11.9567 9.95674C11.7693 10.1442 11.5151 10.2497 11.25 10.25ZM11.25 8.75C11.1511 8.75 11.0544 8.77933 10.9722 8.83427C10.89 8.88921 10.8259 8.9673 10.7881 9.05866C10.7502 9.15002 10.7403 9.25056 10.7596 9.34755C10.7789 9.44454 10.8265 9.53363 10.8964 9.60355C10.9664 9.67348 11.0555 9.7211 11.1525 9.74039C11.2494 9.75969 11.35 9.74978 11.4413 9.71194C11.5327 9.6741 11.6108 9.61001 11.6657 9.52779C11.7207 9.44556 11.75 9.34889 11.75 9.25C11.75 9.11739 11.6973 8.99022 11.6036 8.89645C11.5098 8.80268 11.3826 8.75 11.25 8.75Z" fill="#333333"/>
<path d="M9.625 11.75C9.45194 11.75 9.28277 11.6987 9.13888 11.6025C8.99498 11.5064 8.88283 11.3697 8.81661 11.2098C8.75038 11.05 8.73305 10.874 8.76681 10.7043C8.80058 10.5346 8.88391 10.3787 9.00628 10.2563C9.12865 10.1339 9.28456 10.0506 9.4543 10.0168C9.62403 9.98305 9.79996 10.0004 9.95985 10.0666C10.1197 10.1328 10.2564 10.245 10.3525 10.3889C10.4487 10.5328 10.5 10.7019 10.5 10.875C10.4997 11.107 10.4075 11.3294 10.2434 11.4934C10.0794 11.6575 9.85698 11.7497 9.625 11.75ZM9.625 10.5C9.55083 10.5 9.47833 10.522 9.41666 10.5632C9.35499 10.6044 9.30693 10.663 9.27855 10.7315C9.25016 10.8 9.24274 10.8754 9.25721 10.9482C9.27168 11.0209 9.30739 11.0877 9.35984 11.1402C9.41228 11.1926 9.4791 11.2283 9.55184 11.2428C9.62458 11.2573 9.69998 11.2498 9.76851 11.2215C9.83703 11.1931 9.8956 11.145 9.9368 11.0833C9.97801 11.0217 10 10.9492 10 10.875C10 10.7755 9.96049 10.6802 9.89017 10.6098C9.81984 10.5395 9.72446 10.5 9.625 10.5Z" fill="#333333"/>
</g>
<defs>
<clipPath id="clip0_570_2301">
<rect width="8" height="8" fill="white" transform="translate(5 8)"/>
</clipPath>
</defs>
</svg>
