<svg width="18" height="18" viewBox="0 0 18 18" fill="none" xmlns="http://www.w3.org/2000/svg">
<path d="M15.75 9.75V12C15.75 12.7956 15.4339 13.5587 14.8713 14.1213C14.3087 14.6839 13.5456 15 12.75 15H5.25C4.45435 15 3.69129 14.6839 3.12868 14.1213C2.56607 13.5587 2.25 12.7956 2.25 12V10.2C2.25 10.0807 2.29741 9.96619 2.3818 9.8818C2.46619 9.79741 2.58065 9.75 2.7 9.75H15.75ZM15.75 9.75V5.25C15.75 4.45435 15.4339 3.69129 14.8713 3.12868C14.3087 2.56607 13.5456 2.25 12.75 2.25H9M12 15L12.75 16.5M6 15L5.25 16.5" stroke="#333333" stroke-linecap="round" stroke-linejoin="round"/>
<path d="M11.5498 6H6.44981C6.20156 6 6.0028 5.799 6.0298 5.5515C6.1393 4.55625 6.64705 2.25 8.9998 2.25C11.3526 2.25 11.8603 4.55625 11.9698 5.5515C11.9968 5.799 11.7981 6 11.5498 6Z" stroke="#333333" stroke-linecap="round" stroke-linejoin="round"/>
</svg>
