<svg width="18" height="18" viewBox="0 0 18 18" fill="none" xmlns="http://www.w3.org/2000/svg">
<g clip-path="url(#clip0_566_2291)">
<path d="M3.36833 0.393066C3.26908 0.393076 3.17389 0.43251 3.1037 0.502695C3.03352 0.57288 2.99408 0.668069 2.99407 0.767326V2.07139L0.530688 3.83084C0.482232 3.86553 0.442758 3.91128 0.41555 3.9643C0.388342 4.01732 0.374186 4.07607 0.374259 4.13566V5.6327C0.374269 5.73195 0.413703 5.82714 0.483888 5.89733C0.554073 5.96751 0.649262 6.00695 0.748519 6.00695H8.98222C9.08148 6.00695 9.17667 5.96751 9.24685 5.89733C9.31704 5.82714 9.35647 5.73195 9.35648 5.6327V4.13566C9.35656 4.07607 9.3424 4.01732 9.31519 3.9643C9.28798 3.91128 9.24851 3.86553 9.20005 3.83084L6.73667 2.07212V0.767326C6.73666 0.668069 6.69722 0.57288 6.62704 0.502695C6.55685 0.43251 6.46166 0.393076 6.36241 0.393066H3.36833ZM3.74259 1.14158H5.98815V2.26436C5.98807 2.32395 6.00223 2.3827 6.02944 2.43572C6.05665 2.48874 6.09612 2.53449 6.14458 2.56918L8.60796 4.32791V5.25844H1.12278V4.32791L3.58616 2.56918C3.63462 2.53449 3.67409 2.48874 3.7013 2.43572C3.72851 2.3827 3.74267 2.32395 3.74259 2.26436V1.14158ZM2.05843 8.25251C1.81357 8.25251 1.60849 8.40898 1.53139 8.62677H0.374259C0.275003 8.62678 0.179814 8.66621 0.109629 8.7364C0.0394439 8.80658 9.92418e-06 8.90177 0 9.00103L0 17.2347C9.92418e-06 17.334 0.0394439 17.4292 0.109629 17.4994C0.179814 17.5695 0.275003 17.609 0.374259 17.609H17.626C17.7253 17.609 17.8204 17.5695 17.8906 17.4994C17.9608 17.4292 18.0003 17.334 18.0003 17.2347V9.00103C18.0003 8.90177 17.9608 8.80658 17.8906 8.7364C17.8204 8.66621 17.7253 8.62678 17.626 8.62677H8.19935C8.12225 8.40898 7.91717 8.25251 7.67231 8.25251H2.05843ZM0.748519 9.37529H2.05843H7.67231H9.01804V16.8605H0.748519V9.37529ZM9.76656 9.37529H17.2517V11.6208H9.76656V9.37529ZM1.8713 10.1238C1.77204 10.1238 1.67685 10.1633 1.60667 10.2334C1.53648 10.3036 1.49705 10.3988 1.49704 10.4981V15.7377C1.49705 15.837 1.53648 15.9321 1.60667 16.0023C1.67685 16.0725 1.77204 16.1119 1.8713 16.112H7.85945C7.9587 16.1119 8.05389 16.0725 8.12407 16.0023C8.19426 15.9321 8.23369 15.837 8.2337 15.7377V10.4981C8.23369 10.3988 8.19426 10.3036 8.12407 10.2334C8.05389 10.1633 7.9587 10.1238 7.85945 10.1238H1.8713ZM11.2278 10.1238C11.1782 10.1231 11.1289 10.1323 11.0829 10.1508C11.0369 10.1693 10.995 10.1967 10.9597 10.2315C10.9244 10.2664 10.8963 10.3079 10.8772 10.3536C10.858 10.3994 10.8482 10.4485 10.8482 10.4981C10.8482 10.5477 10.858 10.5968 10.8772 10.6425C10.8963 10.6883 10.9244 10.7298 10.9597 10.7646C10.995 10.7994 11.0369 10.8269 11.0829 10.8454C11.1289 10.8639 11.1782 10.873 11.2278 10.8723H15.7189C15.7685 10.873 15.8177 10.8639 15.8637 10.8454C15.9098 10.8269 15.9517 10.7994 15.987 10.7646C16.0223 10.7298 16.0503 10.6883 16.0695 10.6425C16.0886 10.5968 16.0985 10.5477 16.0985 10.4981C16.0985 10.4485 16.0886 10.3994 16.0695 10.3536C16.0503 10.3079 16.0223 10.2664 15.987 10.2315C15.9517 10.1967 15.9098 10.1693 15.8637 10.1508C15.8177 10.1323 15.7685 10.1231 15.7189 10.1238H11.2278ZM2.24556 10.8723H7.48519V15.3634H2.24556V10.8723ZM9.76656 12.3694H17.2517V16.8605H9.76656V12.3694ZM11.2219 13.487C11.1228 13.4886 11.0283 13.5294 10.9593 13.6005C10.8902 13.6716 10.8522 13.7673 10.8535 13.8664V15.7377C10.8528 15.7873 10.862 15.8365 10.8805 15.8825C10.899 15.9286 10.9264 15.9705 10.9612 16.0058C10.9961 16.0411 11.0376 16.0691 11.0833 16.0883C11.1291 16.1074 11.1782 16.1173 11.2278 16.1173C11.2774 16.1173 11.3265 16.1074 11.3722 16.0883C11.418 16.0691 11.4595 16.0411 11.4943 16.0058C11.5291 15.9705 11.5566 15.9286 11.5751 15.8825C11.5936 15.8365 11.6027 15.7873 11.602 15.7377V13.8664C11.6027 13.8163 11.5934 13.7666 11.5745 13.7202C11.5556 13.6739 11.5276 13.6317 11.4922 13.5964C11.4567 13.561 11.4146 13.5331 11.3681 13.5143C11.3217 13.4955 11.272 13.4862 11.2219 13.487Z" fill="#333333"/>
</g>
<defs>
<clipPath id="clip0_566_2291">
<rect width="18" height="18" fill="white"/>
</clipPath>
</defs>
</svg>
