<svg width="18" height="18" viewBox="0 0 18 18" fill="none" xmlns="http://www.w3.org/2000/svg">
<g clip-path="url(#clip0_566_2275)">
<path d="M15.75 6H16.5V3.75H14.25V4.5045L3.75 1.84575V0.75H1.5V3H2.25V7.5H0.75V13.5H2.25V15H1.5V17.25H3.75V16.5H14.25V17.25H16.5V15H15.75V13.5H17.25V7.5H15.75V6ZM15 4.5H15.75V5.25H15V4.5ZM2.25 1.5H3V2.25H2.25V1.5ZM3 3H3.75V2.6235L14.25 5.28225V6H15V7.5H3V3ZM3 16.5H2.25V15.75H3V16.5ZM15.75 16.5H15V15.75H15.75V16.5ZM15 15H14.25V15.75H3.75V15H3V13.5H15V15ZM16.5 8.25V12.75H15.75V10.5H15V12.75H14.25V11.25H13.5V12.75H12.75V9H12V12.75H11.25V11.25H10.5V12.75H9.75V10.5H9V12.75H8.25V11.25H7.5V12.75H6.75V9H6V12.75H5.25V11.25H4.5V12.75H3.75V10.5H3V12.75H1.5V8.25H16.5Z" fill="#333333"/>
</g>
<defs>
<clipPath id="clip0_566_2275">
<rect width="18" height="18" fill="white"/>
</clipPath>
</defs>
</svg>
