<svg width="116" height="81" viewBox="0 0 116 81" fill="none" xmlns="http://www.w3.org/2000/svg">
<path d="M0.0151719 33V1.188H6.37317L20.8932 22.242V1.188H27.3172V33H21.5312L6.41717 11.11V33H0.0151719ZM34.4331 33V1.188H56.2791L56.2571 6.6H40.8791V14.322H54.2331V19.624H40.8351V27.522L56.4991 27.544V33H34.4331ZM74.5876 33.44C73.0036 33.44 71.4563 33.242 69.9456 32.846C68.4349 32.45 67.0563 31.856 65.8096 31.064C64.5629 30.272 63.5363 29.282 62.7296 28.094C61.9376 26.906 61.4609 25.5127 61.2996 23.914H67.8776C68.0976 24.882 68.5156 25.696 69.1316 26.356C69.7623 27.016 70.5689 27.522 71.5516 27.874C72.5489 28.226 73.6856 28.402 74.9616 28.402C75.9736 28.402 76.9343 28.2553 77.8436 27.962C78.7529 27.6687 79.4936 27.2213 80.0656 26.62C80.6376 26.0187 80.9236 25.2633 80.9236 24.354C80.9236 23.2687 80.5276 22.4547 79.7356 21.912C78.9436 21.3547 77.8656 20.9147 76.5016 20.592L70.5396 19.294C68.8529 18.942 67.3789 18.3993 66.1176 17.666C64.8709 16.918 63.9103 15.95 63.2356 14.762C62.5609 13.5593 62.2236 12.1 62.2236 10.384C62.2236 8.404 62.7663 6.69533 63.8516 5.258C64.9516 3.82067 66.4403 2.72067 68.3176 1.958C70.2096 1.18067 72.3289 0.791998 74.6756 0.791998C77.3303 0.791998 79.5669 1.22466 81.3856 2.09C83.2189 2.94066 84.6196 4.09933 85.5876 5.566C86.5556 7.018 87.0469 8.63867 87.0616 10.428H80.6376C80.5203 9.328 80.1829 8.448 79.6256 7.788C79.0683 7.11333 78.3496 6.62933 77.4696 6.336C76.6043 6.028 75.6143 5.874 74.4996 5.874C72.5783 5.874 71.1776 6.26267 70.2976 7.04C69.4176 7.81733 68.9776 8.71933 68.9776 9.746C68.9776 10.714 69.3076 11.4987 69.9676 12.1C70.6423 12.6867 71.7203 13.134 73.2016 13.442L78.7236 14.63C80.7769 15.026 82.4416 15.6567 83.7176 16.522C84.9936 17.3727 85.9249 18.4067 86.5116 19.624C87.0983 20.8413 87.3916 22.2053 87.3916 23.716C87.3916 25.6373 86.8416 27.3313 85.7416 28.798C84.6563 30.25 83.1529 31.3867 81.2316 32.208C79.3103 33.0293 77.0956 33.44 74.5876 33.44ZM99.8855 33V6.908H90.2715V1.188H115.726V6.908H106.332V33H99.8855ZM25.0965 68.44C22.0899 68.44 19.4865 67.7873 17.2865 66.482C15.1012 65.162 13.4072 63.292 12.2045 60.872C11.0165 58.4373 10.4225 55.5333 10.4225 52.16C10.4225 48.772 11.0239 45.8533 12.2265 43.404C13.4439 40.9547 15.1525 39.07 17.3525 37.75C19.5525 36.4153 22.1339 35.748 25.0965 35.748C28.0445 35.748 30.6112 36.408 32.7965 37.728C34.9819 39.048 36.6685 40.9327 37.8565 43.382C39.0592 45.8313 39.6605 48.7573 39.6605 52.16C39.6605 55.5187 39.0665 58.4153 37.8785 60.85C36.7052 63.2847 35.0259 65.162 32.8405 66.482C30.6552 67.7873 28.0739 68.44 25.0965 68.44ZM25.0965 63.16C26.6512 63.16 27.9932 62.7933 29.1225 62.06C30.2665 61.312 31.1465 60.1387 31.7625 58.54C32.3785 56.9267 32.6865 54.8293 32.6865 52.248C32.6865 49.5933 32.3712 47.4447 31.7405 45.802C31.1245 44.1593 30.2445 42.9567 29.1005 42.194C27.9712 41.4167 26.6365 41.028 25.0965 41.028C23.5565 41.028 22.2145 41.4167 21.0705 42.194C19.9265 42.9567 19.0392 44.1667 18.4085 45.824C17.7779 47.4667 17.4625 49.608 17.4625 52.248C17.4625 54.844 17.7779 56.9413 18.4085 58.54C19.0392 60.1387 19.9265 61.312 21.0705 62.06C22.2145 62.7933 23.5565 63.16 25.0965 63.16ZM45.3472 68V36.188H58.7672C61.3045 36.188 63.3799 36.5913 64.9932 37.398C66.6065 38.2047 67.7945 39.3267 68.5572 40.764C69.3199 42.1867 69.7012 43.8293 69.7012 45.692C69.7012 47.364 69.4372 48.7793 68.9092 49.938C68.3959 51.082 67.7139 52.0353 66.8632 52.798C66.0272 53.5607 65.1105 54.184 64.1132 54.668L70.0312 68H63.3652L58.1952 55.746H51.7492V68H45.3472ZM51.7492 50.796H57.6232C59.3392 50.796 60.6959 50.334 61.6932 49.41C62.7052 48.486 63.2112 47.298 63.2112 45.846C63.2112 44.3793 62.7272 43.2207 61.7592 42.37C60.7912 41.5193 59.5665 41.094 58.0852 41.094H51.7492V50.796ZM73.9307 68L85.3047 36.188H92.1027L103.477 68H97.0747L94.4787 60.63H83.0167L80.3767 68H73.9307ZM84.4687 55.02H92.9167L88.7147 42.37L84.4687 55.02Z" fill="black"/>
<line x1="2" y1="77" x2="112" y2="77" stroke="black" stroke-width="8"/>
</svg>
