<svg width="218" height="49" viewBox="0 0 218 49" fill="none" xmlns="http://www.w3.org/2000/svg">
<path d="M4.39017 33V1.188H10.7482L25.2682 22.242V1.188H31.6922V33H25.9062L10.7922 11.11V33H4.39017ZM38.8081 33V1.188H60.6541L60.6321 6.6H45.2541V14.322H58.6081V19.624H45.2101V27.522L60.8741 27.544V33H38.8081ZM78.9626 33.44C77.3786 33.44 75.8313 33.242 74.3206 32.846C72.8099 32.45 71.4313 31.856 70.1846 31.064C68.9379 30.272 67.9113 29.282 67.1046 28.094C66.3126 26.906 65.8359 25.5127 65.6746 23.914H72.2526C72.4726 24.882 72.8906 25.696 73.5066 26.356C74.1373 27.016 74.9439 27.522 75.9266 27.874C76.9239 28.226 78.0606 28.402 79.3366 28.402C80.3486 28.402 81.3093 28.2553 82.2186 27.962C83.1279 27.6687 83.8686 27.2213 84.4406 26.62C85.0126 26.0187 85.2986 25.2633 85.2986 24.354C85.2986 23.2687 84.9026 22.4547 84.1106 21.912C83.3186 21.3547 82.2406 20.9147 80.8766 20.592L74.9146 19.294C73.2279 18.942 71.7539 18.3993 70.4926 17.666C69.2459 16.918 68.2853 15.95 67.6106 14.762C66.9359 13.5593 66.5986 12.1 66.5986 10.384C66.5986 8.404 67.1413 6.69533 68.2266 5.258C69.3266 3.82067 70.8153 2.72067 72.6926 1.958C74.5846 1.18067 76.7039 0.791998 79.0506 0.791998C81.7053 0.791998 83.9419 1.22466 85.7606 2.09C87.5939 2.94066 88.9946 4.09933 89.9626 5.566C90.9306 7.018 91.4219 8.63867 91.4366 10.428H85.0126C84.8953 9.328 84.5579 8.448 84.0006 7.788C83.4433 7.11333 82.7246 6.62933 81.8446 6.336C80.9793 6.028 79.9893 5.874 78.8746 5.874C76.9533 5.874 75.5526 6.26267 74.6726 7.04C73.7926 7.81733 73.3526 8.71933 73.3526 9.746C73.3526 10.714 73.6826 11.4987 74.3426 12.1C75.0173 12.6867 76.0953 13.134 77.5766 13.442L83.0986 14.63C85.1519 15.026 86.8166 15.6567 88.0926 16.522C89.3686 17.3727 90.2999 18.4067 90.8866 19.624C91.4733 20.8413 91.7666 22.2053 91.7666 23.716C91.7666 25.6373 91.2166 27.3313 90.1166 28.798C89.0313 30.25 87.5279 31.3867 85.6066 32.208C83.6853 33.0293 81.4706 33.44 78.9626 33.44ZM104.261 33V6.908H94.6465V1.188H120.101V6.908H110.707V33H104.261ZM137.581 33.44C134.574 33.44 131.971 32.7873 129.771 31.482C127.586 30.162 125.892 28.292 124.689 25.872C123.501 23.4373 122.907 20.5333 122.907 17.16C122.907 13.772 123.508 10.8533 124.711 8.404C125.928 5.95467 127.637 4.07 129.837 2.75C132.037 1.41533 134.618 0.747998 137.581 0.747998C140.529 0.747998 143.096 1.408 145.281 2.728C147.466 4.048 149.153 5.93267 150.341 8.382C151.544 10.8313 152.145 13.7573 152.145 17.16C152.145 20.5187 151.551 23.4153 150.363 25.85C149.19 28.2847 147.51 30.162 145.325 31.482C143.14 32.7873 140.558 33.44 137.581 33.44ZM137.581 28.16C139.136 28.16 140.478 27.7933 141.607 27.06C142.751 26.312 143.631 25.1387 144.247 23.54C144.863 21.9267 145.171 19.8293 145.171 17.248C145.171 14.5933 144.856 12.4447 144.225 10.802C143.609 9.15933 142.729 7.95667 141.585 7.194C140.456 6.41666 139.121 6.028 137.581 6.028C136.041 6.028 134.699 6.41666 133.555 7.194C132.411 7.95667 131.524 9.16667 130.893 10.824C130.262 12.4667 129.947 14.608 129.947 17.248C129.947 19.844 130.262 21.9413 130.893 23.54C131.524 25.1387 132.411 26.312 133.555 27.06C134.699 27.7933 136.041 28.16 137.581 28.16ZM157.832 33V1.188H171.252C173.789 1.188 175.864 1.59133 177.478 2.398C179.091 3.20467 180.279 4.32667 181.042 5.764C181.804 7.18667 182.186 8.82933 182.186 10.692C182.186 12.364 181.922 13.7793 181.394 14.938C180.88 16.082 180.198 17.0353 179.348 17.798C178.512 18.5607 177.595 19.184 176.598 19.668L182.516 33H175.85L170.68 20.746H164.234V33H157.832ZM164.234 15.796H170.108C171.824 15.796 173.18 15.334 174.178 14.41C175.19 13.486 175.696 12.298 175.696 10.846C175.696 9.37933 175.212 8.22067 174.244 7.37C173.276 6.51933 172.051 6.094 170.57 6.094H164.234V15.796ZM186.415 33L197.789 1.188H204.587L215.961 33H209.559L206.963 25.63H195.501L192.861 33H186.415ZM196.953 20.02H205.401L201.199 7.37L196.953 20.02Z" fill="black"/>
<line x1="56" y1="45" x2="162" y2="45" stroke="black" stroke-width="8"/>
</svg>
